<svg id="Layer_1" data-name="Layer 1" xmlns="http://www.w3.org/2000/svg" viewBox="0 0 1031.74 79.06"><defs><style>.cls-1{fill:#b87d4b;}.cls-2{fill:#e5b25d;}</style></defs><title>cc-logo-long</title><path class="cls-1" d="M43,60.66l1.62-1.17c2-1.19,3.48-1.8,4.32-1.8,1.86,0,3.87,1.69,6,5,1.32,2.11,2,3.78,2,5a4.35,4.35,0,0,1-1.22,3.15,14.16,14.16,0,0,1-2.83,2.25c-1.08.67-2.12,1.3-3.11,1.89a31.25,31.25,0,0,1-6.07,2.34,29.6,29.6,0,0,1-8.87,1.44,34.51,34.51,0,0,1-8.64-1.12,36.57,36.57,0,0,1-9-3.78,37.17,37.17,0,0,1-8.32-6.48,29.85,29.85,0,0,1-6.08-9.81,34.84,34.84,0,0,1-2.38-13A33.29,33.29,0,0,1,2.77,31.91a29.15,29.15,0,0,1,6-9.45,34.28,34.28,0,0,1,8.33-6.26,36.42,36.42,0,0,1,17.73-4.86,29.88,29.88,0,0,1,8.59,1.31A30.25,30.25,0,0,1,50,15.3l2.16,1.26q1.62,1,2.52,1.62A5.46,5.46,0,0,1,57,22.46a8.57,8.57,0,0,1-1.89,5q-3.51,4.86-6.3,4.86-1.62,0-4.59-2c-2.52-2-5.88-3.06-10.08-3.06a19.66,19.66,0,0,0-11.52,4.05,15.22,15.22,0,0,0-4.5,5.58,18,18,0,0,0-1.8,8.15,17.91,17.91,0,0,0,1.8,8.14,15.56,15.56,0,0,0,4.59,5.67,19.21,19.21,0,0,0,11.43,4,18.37,18.37,0,0,0,5.26-.72A13.08,13.08,0,0,0,43,60.66Z"/><path class="cls-1" d="M69.1,36.45a24.72,24.72,0,0,1,34.47,0A23.24,23.24,0,0,1,111,54.18a23.37,23.37,0,0,1-3.87,13.28A24.28,24.28,0,0,1,97.76,76a25.5,25.5,0,0,1-11.47,2.74,24.51,24.51,0,0,1-11.52-2.92,25.56,25.56,0,0,1-9.41-8.64,22.68,22.68,0,0,1-3.82-12.92A23.26,23.26,0,0,1,69.1,36.45ZM80.35,60.71a9.56,9.56,0,0,0,5.85,2.2,9.75,9.75,0,0,0,5.94-2.25,7.82,7.82,0,0,0,3-6.66c0-2.93-.93-5.13-2.79-6.57a9.66,9.66,0,0,0-6-2.16,9.47,9.47,0,0,0-6,2.25,8,8,0,0,0-2.79,6.62A7.76,7.76,0,0,0,80.35,60.71Z"/><path class="cls-1" d="M132.37,36.81q4.23-6.39,10.17-6.39a14.77,14.77,0,0,1,13.68,7.83,30.6,30.6,0,0,1,2.38-2.83,19.71,19.71,0,0,1,4.46-3.24,12.49,12.49,0,0,1,6.3-1.76A15.41,15.41,0,0,1,181.42,36q4.86,5.53,4.86,18.31V70a25.89,25.89,0,0,1-.14,3.11,7.17,7.17,0,0,1-.85,2.38c-.78,1.62-3.1,2.43-6.93,2.43s-6.09-.84-6.93-2.52a8.34,8.34,0,0,1-.77-2.38,26.37,26.37,0,0,1-.13-3.11V54.18q0-7.83-5.58-7.83c-2.11,0-3.53.7-4.28,2.07a12.43,12.43,0,0,0-1.12,5.85V70a25.73,25.73,0,0,1-.14,3.15,7.15,7.15,0,0,1-.85,2.34q-1.27,2.43-7,2.43t-6.93-2.52a8.34,8.34,0,0,1-.77-2.38,26.37,26.37,0,0,1-.13-3.11V54.18q0-7.83-5.58-7.83-5.4,0-5.4,7.83V70.11a25.89,25.89,0,0,1-.14,3.11,7.17,7.17,0,0,1-.85,2.38c-.9,1.57-3.24,2.34-7,2.34s-6.09-.81-6.93-2.43a8.34,8.34,0,0,1-.77-2.34,26.24,26.24,0,0,1-.13-3.15V38.34a26.4,26.4,0,0,1,.13-3.1,6.32,6.32,0,0,1,.86-2.3c.9-1.62,3-2.43,6.39-2.43s5.54.54,6.57,1.62A6.63,6.63,0,0,1,132.37,36.81Z"/><path class="cls-1" d="M219.4,30.6q6.21,0,7.29,3.42a15.44,15.44,0,0,1,.54,4.5,13.82,13.82,0,0,1-.59,4.46,4.2,4.2,0,0,1-1.84,2.38,11.25,11.25,0,0,1-5.49,1.08l-5.76-.36V70.2a11.58,11.58,0,0,1-.86,5.09,4.23,4.23,0,0,1-2.61,2.2,15.78,15.78,0,0,1-4.54.54,13.85,13.85,0,0,1-4.46-.58,4.15,4.15,0,0,1-2.38-1.89,6.82,6.82,0,0,1-.86-2.39,27.5,27.5,0,0,1-.13-3.15V46.17h-3.24a5.58,5.58,0,0,1-3.33-1.08c-1.14-1.13-1.71-3.33-1.71-6.57,0-4.91,1.77-7.38,5.31-7.38h3V26.37a18.55,18.55,0,0,1,4.95-12.55q5-5.62,14.31-5.63a25.82,25.82,0,0,1,3.1.14,7.21,7.21,0,0,1,2.39.85q2.43,1.19,2.43,6.93,0,4.32-1.53,6.21a5.51,5.51,0,0,1-4,1.62h-2.52c-2.22,0-3.33.76-3.33,2.25v4.95Z"/><path class="cls-1" d="M236.59,36.45a24.72,24.72,0,0,1,34.47,0,23.24,23.24,0,0,1,7.47,17.77,23.37,23.37,0,0,1-3.87,13.28A24.28,24.28,0,0,1,265.25,76a25.5,25.5,0,0,1-11.47,2.74,24.51,24.51,0,0,1-11.52-2.92,25.56,25.56,0,0,1-9.41-8.64A22.68,22.68,0,0,1,229,54.27,23.26,23.26,0,0,1,236.59,36.45Zm11.25,24.26a9.56,9.56,0,0,0,5.85,2.2,9.75,9.75,0,0,0,5.94-2.25,7.82,7.82,0,0,0,3-6.66c0-2.93-.93-5.13-2.79-6.57a9.66,9.66,0,0,0-6-2.16,9.47,9.47,0,0,0-6,2.25A8,8,0,0,0,245,54.14,7.76,7.76,0,0,0,247.84,60.71Z"/><path class="cls-1" d="M316.6,31.05a6.12,6.12,0,0,1,2.83,1.85,6.35,6.35,0,0,1,1.13,4.18,14.33,14.33,0,0,1-1.71,6.3c-1.14,2.29-2.79,3.42-5,3.42a6.92,6.92,0,0,1-3.11-.72,9,9,0,0,0-3.91-.72,7.11,7.11,0,0,0-4.55,1.71,5.17,5.17,0,0,0-2.11,4.14v18.9a25.89,25.89,0,0,1-.14,3.11,7.17,7.17,0,0,1-.85,2.38c-.9,1.57-3.24,2.34-7,2.34q-4.32,0-6.21-1.53a5.38,5.38,0,0,1-1.62-3.87V38.34a26.4,26.4,0,0,1,.13-3.1,7.48,7.48,0,0,1,.77-2.3q1.26-2.43,7-2.43,5.4,0,6.75,2.07a5.2,5.2,0,0,1,1,3,16,16,0,0,1,1.3-1.53A17.12,17.12,0,0,1,305,31.59a10.47,10.47,0,0,1,4.9-1.53,23.57,23.57,0,0,1,3.56.23A21.9,21.9,0,0,1,316.6,31.05Z"/><path class="cls-1" d="M353,46.44l-5.84-.36V58.5A6.21,6.21,0,0,0,348,62a3.31,3.31,0,0,0,2.88,1.08,29,29,0,0,1,3.24.14,6.36,6.36,0,0,1,2.38.85c1.38.78,2.08,2.79,2.08,6,0,3.78-.85,6.09-2.53,6.93a8,8,0,0,1-2.38.77,25.35,25.35,0,0,1-3,.13q-9.37,0-14.22-4.23T331.53,59.4V46.08a23.69,23.69,0,0,1-3.69.27,4.13,4.13,0,0,1-3.28-1.53c-.87-1-1.31-2.75-1.31-5.22a22.61,22.61,0,0,1,.45-5.35A4.83,4.83,0,0,1,325,31.86a5.6,5.6,0,0,1,3.6-1.17l3,.36V21.78a24.71,24.71,0,0,1,.14-3.06,5.65,5.65,0,0,1,.85-2.16c.78-1.49,3.09-2.25,6.93-2.25q6.12,0,7.3,3.33a17.24,17.24,0,0,1,.45,4.59v8.82c2.63-.23,4.63-.36,6-.36a25.4,25.4,0,0,1,3.06.14,7.29,7.29,0,0,1,2.39.85Q361,32.86,361,38.61c0,3.78-.8,6.09-2.42,6.93a8.18,8.18,0,0,1-2.39.77A26.48,26.48,0,0,1,353,46.44Z"/><path class="cls-2" d="M429.9,60.66l1.62-1.17c2-1.19,3.48-1.8,4.32-1.8,1.86,0,3.87,1.69,6,5,1.32,2.11,2,3.78,2,5a4.34,4.34,0,0,1-1.21,3.15,14.23,14.23,0,0,1-2.84,2.25c-1.08.67-2.11,1.3-3.1,1.89a31.43,31.43,0,0,1-6.08,2.34,29.53,29.53,0,0,1-8.86,1.44,34.51,34.51,0,0,1-8.64-1.12,36.57,36.57,0,0,1-9-3.78,37.22,37.22,0,0,1-8.33-6.48,29.83,29.83,0,0,1-6.07-9.81,34.84,34.84,0,0,1-2.39-13,33.29,33.29,0,0,1,2.34-12.73,29.16,29.16,0,0,1,6-9.45A34.22,34.22,0,0,1,404,16.2a36.42,36.42,0,0,1,17.73-4.86,30,30,0,0,1,8.6,1.31,30.13,30.13,0,0,1,6.61,2.65l2.16,1.26q1.62,1,2.52,1.62a5.46,5.46,0,0,1,2.34,4.28,8.57,8.57,0,0,1-1.89,5q-3.51,4.86-6.3,4.86-1.62,0-4.59-2c-2.52-2-5.88-3.06-10.08-3.06a19.66,19.66,0,0,0-11.52,4.05,15.22,15.22,0,0,0-4.5,5.58,18,18,0,0,0-1.8,8.15,17.91,17.91,0,0,0,1.8,8.14,15.56,15.56,0,0,0,4.59,5.67,19.21,19.21,0,0,0,11.43,4,18.44,18.44,0,0,0,5.27-.72A13,13,0,0,0,429.9,60.66Z"/><path class="cls-2" d="M456,36.45a24.72,24.72,0,0,1,34.47,0,23.24,23.24,0,0,1,7.47,17.77,23.37,23.37,0,0,1-3.87,13.28,24.26,24.26,0,0,1-9.4,8.55,25.54,25.54,0,0,1-11.48,2.74,24.51,24.51,0,0,1-11.52-2.92,25.53,25.53,0,0,1-9.4-8.64,22.69,22.69,0,0,1-3.83-12.92A23.26,23.26,0,0,1,456,36.45Zm11.25,24.26a9.56,9.56,0,0,0,5.85,2.2A9.75,9.75,0,0,0,479,60.66,7.82,7.82,0,0,0,482,54c0-2.93-.93-5.13-2.79-6.57a9.66,9.66,0,0,0-6-2.16,9.47,9.47,0,0,0-6,2.25,8,8,0,0,0-2.79,6.62A7.76,7.76,0,0,0,467.25,60.71Z"/><path class="cls-2" d="M510,36.45a24.72,24.72,0,0,1,34.47,0,23.24,23.24,0,0,1,7.47,17.77,23.37,23.37,0,0,1-3.87,13.28,24.26,24.26,0,0,1-9.4,8.55,25.54,25.54,0,0,1-11.48,2.74,24.51,24.51,0,0,1-11.52-2.92,25.53,25.53,0,0,1-9.4-8.64,22.69,22.69,0,0,1-3.83-12.92A23.26,23.26,0,0,1,510,36.45Zm11.25,24.26a9.56,9.56,0,0,0,5.85,2.2A9.75,9.75,0,0,0,533,60.66,7.82,7.82,0,0,0,536,54c0-2.93-.93-5.13-2.79-6.57a9.66,9.66,0,0,0-6-2.16,9.47,9.47,0,0,0-6,2.25,8,8,0,0,0-2.79,6.62A7.76,7.76,0,0,0,521.25,60.71Z"/><path class="cls-2" d="M585.69,54.18l12,9.9A14.4,14.4,0,0,1,600.5,67a3.88,3.88,0,0,1,.58,1.89q0,2.16-2.79,5.85-3.06,3.78-5.4,3.78c-1.32,0-3.15-.86-5.49-2.61l-.9-.63q-2.07-1.69-6.39-6t-6.57-6.08v6.93a26.37,26.37,0,0,1-.13,3.11,7.21,7.21,0,0,1-.86,2.38c-.78,1.57-3.09,2.34-6.93,2.34s-6.09-.81-6.93-2.43a8.29,8.29,0,0,1-.76-2.38,23.93,23.93,0,0,1-.14-3.11V16.11a23.85,23.85,0,0,1,.14-3.1,8.34,8.34,0,0,1,.76-2.39q1.26-2.43,7-2.43,4.32,0,6.12,1.53a5.09,5.09,0,0,1,1.62,4c.06.54.09,1.39.09,2.52V44.73c1.08-.9,2.71-2.43,4.91-4.59s3.82-3.69,4.9-4.59l1.08-.72q3.15-2.43,5.4-2.43c1.5,0,3.22,1.22,5.18,3.65s2.92,4.33,2.92,5.71-1.11,3-3.33,4.86Z"/><path class="cls-2" d="M620.83,21.74a3.8,3.8,0,0,1-2.38,1.84,19.4,19.4,0,0,1-9.09,0A3.79,3.79,0,0,1,607,21.69a7.39,7.39,0,0,1-.8-2.38A23.93,23.93,0,0,1,606,16.2a23.85,23.85,0,0,1,.14-3.1,7.18,7.18,0,0,1,.76-2.3q1.26-2.43,7-2.43t6.84,2.43a7.21,7.21,0,0,1,.85,2.39,25.93,25.93,0,0,1,.14,3.1,26,26,0,0,1-.14,3.11A7,7,0,0,1,620.83,21.74ZM606,38.43a23.85,23.85,0,0,1,.14-3.1,8,8,0,0,1,.76-2.39q1.26-2.34,7-2.34,4.32,0,6.12,1.53A5,5,0,0,1,621.69,36q.09.9.09,2.61v31.5a25.89,25.89,0,0,1-.14,3.11,7.17,7.17,0,0,1-.85,2.38c-.78,1.57-3.09,2.34-6.93,2.34s-6.09-.81-6.93-2.43a8,8,0,0,1-.76-2.34A23.82,23.82,0,0,1,606,70Z"/><path class="cls-2" d="M674.7,48.56q0,5.53-2.75,8.19a8.54,8.54,0,0,1-6.07,2.65H644.55q0,2.54,3,4.23a11.81,11.81,0,0,0,5.94,1.71,24.78,24.78,0,0,0,8.19-1.08l1-.36a9.08,9.08,0,0,1,3.6-1q2.88,0,5,4a10,10,0,0,1,1.17,4.14q0,8-19.17,8a29,29,0,0,1-11.84-2.29,20.09,20.09,0,0,1-8.05-6.08,25.88,25.88,0,0,1-5.67-16.29q0-11.34,7.33-18.13t18.32-6.8q12.51,0,18.36,8.82A18.33,18.33,0,0,1,674.7,48.56Zm-19,2.65c2.28,0,3.42-1,3.42-2.88A4.06,4.06,0,0,0,657.55,45a7.11,7.11,0,0,0-4.5-1.26,9.09,9.09,0,0,0-5.8,2.39q-2.88,2.38-2.88,5.08Z"/><path class="cls-2" d="M680.91,73.71a3.74,3.74,0,0,1-1.71-3.42c0-1.56,1.14-3.92,3.42-7.11a3.53,3.53,0,0,1,3.19-1.53q2.21,0,6,2.21a13.86,13.86,0,0,0,6.84,2.2q5.49,0,5.49-2.16,0-1.71-6-2.52a29.46,29.46,0,0,1-11.25-4.23,12,12,0,0,1-4.32-5.08,18.45,18.45,0,0,1-1.71-8.24q0-14.22,19.53-14.22a31.71,31.71,0,0,1,13.14,3.06q3.15,1.44,3.15,3.6a10.62,10.62,0,0,1-2,5.31q-2,3.15-4,3.15a12.2,12.2,0,0,1-4-1.35A14.93,14.93,0,0,0,700.26,42c-3.54,0-5.31.67-5.31,2q0,2.7,6.12,3.51a33.71,33.71,0,0,1,11.52,3.42A10.25,10.25,0,0,1,717,55.31a15.63,15.63,0,0,1,1.76,7.78,16.7,16.7,0,0,1-1.76,8,11.36,11.36,0,0,1-4.9,4.9q-5.76,2.79-14.45,2.79A30.8,30.8,0,0,1,680.91,73.71Z"/><rect class="cls-1" x="953.41" y="21.55" width="36.41" height="57.51"/><rect class="cls-2" x="989.82" y="21.55" width="41.92" height="57.51"/><polygon class="cls-2" points="1010.78 7.67 989.82 21.55 1031.74 21.55 1010.78 7.67"/><polygon class="cls-1" points="953.41 21.55 974.48 7.67 1010.78 7.67 989.82 21.55 953.41 21.55"/><polyline class="cls-1" points="974.48 7.61 974.48 0 1010.78 0 1010.78 7.61"/><path class="cls-2" d="M892.77.49c-21.89,0-30,8.37-30,18.69V17.56c-18.78,0-18.28,22.15-18.28,22.15s-.5,22.16,18.28,22.16a17.07,17.07,0,0,0,17.07,17.07h25.91a17.06,17.06,0,0,0,17.06-17.07V19.18C922.79,8.86,914.66.49,892.77.49Zm-30,53.12s-10.33,1.31-10.33-13.9,10.33-13.89,10.33-13.89Z"/><ellipse class="cls-1" cx="893.03" cy="16.47" rx="20.84" ry="11.4"/><circle class="cls-2" cx="786.73" cy="39.9" r="39.16"/><circle class="cls-1" cx="768.36" cy="29.18" r="6.78"/><circle class="cls-1" cx="788.82" cy="14.83" r="7.47"/><circle class="cls-1" cx="783.46" cy="39.9" r="3.52"/><circle class="cls-1" cx="805.58" cy="33.56" r="4.43"/><circle class="cls-1" cx="769.1" cy="57.49" r="8.13"/><circle class="cls-1" cx="803.06" cy="56.13" r="6.78"/></svg>