<svg id="Layer_1" data-name="Layer 1" xmlns="http://www.w3.org/2000/svg" viewBox="0 0 393.8 515.33"><defs><style>.cls-1{fill:#e5b25d;}.cls-2,.cls-3{fill:none;}.cls-3{stroke:#e5b25d;stroke-width:40px;}</style></defs><title>menu</title><path class="cls-1" d="M199.37,270.16a73,73,0,0,1-69-49.52,70.94,70.94,0,0,1-3.41-15.51,73,73,0,0,1,43.26-74.6,71.74,71.74,0,0,1,18.33-5.3,67.48,67.48,0,0,1,15.62-.6,13.15,13.15,0,0,1,1.9.19,3.43,3.43,0,0,1,2.26,5.12,15.12,15.12,0,0,0-1.68,3.95,12.06,12.06,0,0,0,7.12,13.84,3.5,3.5,0,0,1,1.87,5.23,20.12,20.12,0,0,0-1.2,16.39c2.65,7.47,8,12.06,15.74,13.67a20.16,20.16,0,0,0,13.6-2,3.47,3.47,0,0,1,5.17,1.88A12.18,12.18,0,0,0,261,190.33a12,12,0,0,0,5.39-1.78,3.48,3.48,0,0,1,4.09,0,3.57,3.57,0,0,1,1.5,2.89,71.43,71.43,0,0,1-8.78,41,72.65,72.65,0,0,1-63.83,37.74Zm1.52-138.68c-21-1-47.92,10.09-61,37.31a65.94,65.94,0,0,0,95.24,83.91,65.91,65.91,0,0,0,30.12-57c-.6.23-1.05.43-1.52.58a14.65,14.65,0,0,1-2.85.88,14.83,14.83,0,0,1-8.42-1.76,20.2,20.2,0,0,1-7.59-7,.51.51,0,0,0-.74-.22,27.2,27.2,0,0,1-6.65,1.86,27.71,27.71,0,0,1-27.68-14,26.13,26.13,0,0,1-2.46-20.45c.35-1.2.78-2.38,1.19-3.59l-.71-.48c-4-2.82-6.9-6.39-8-11.23a10.23,10.23,0,0,1,.46-7.2A13.71,13.71,0,0,0,200.89,131.48Z" transform="translate(-61.39 1.67)"/><path class="cls-1" d="M237.57,131.36a6.94,6.94,0,1,1,13.87,0,6.94,6.94,0,1,1-13.87,0Z" transform="translate(-61.39 1.67)"/><path class="cls-1" d="M244.48,157.41a5.2,5.2,0,1,1-5.13-5.22A5.24,5.24,0,0,1,244.48,157.41Z" transform="translate(-61.39 1.67)"/><path class="cls-1" d="M272.24,166.09a3.46,3.46,0,1,1-3.44-3.5A3.47,3.47,0,0,1,272.24,166.09Z" transform="translate(-61.39 1.67)"/><path class="cls-2" d="M200.89,131.48a13.71,13.71,0,0,1-.61,1.63,10.23,10.23,0,0,0-.46,7.2c1.14,4.84,4.07,8.41,8,11.23l.71.48c-.41,1.21-.84,2.39-1.19,3.59a26.13,26.13,0,0,0,2.46,20.45,27.71,27.71,0,0,0,27.68,14,27.2,27.2,0,0,0,6.65-1.86.51.51,0,0,1,.74.22,20.2,20.2,0,0,0,7.59,7,14.83,14.83,0,0,0,8.42,1.76,14.65,14.65,0,0,0,2.85-.88c.47-.15.92-.35,1.52-.58a65.91,65.91,0,0,1-30.12,57,65.94,65.94,0,0,1-95.24-83.91C153,141.57,179.91,130.5,200.89,131.48Zm-25.81,58.88a10.4,10.4,0,1,0-10.36,10.4A10.38,10.38,0,0,0,175.08,190.36Zm34.73,39.9a8.67,8.67,0,1,0,8.73-8.66A8.68,8.68,0,0,0,209.81,230.26Zm-31.27-5.2a6.93,6.93,0,1,0-6.89,6.92A6.94,6.94,0,0,0,178.54,225.06ZM202.84,199a5.2,5.2,0,1,0-5.08,5.21A5.17,5.17,0,0,0,202.84,199Zm-15.6-26a5.2,5.2,0,1,0-5.2-5.15A5.18,5.18,0,0,0,187.24,173Z" transform="translate(-61.39 1.67)"/><path class="cls-1" d="M175.08,190.36A10.4,10.4,0,1,1,164.67,180,10.39,10.39,0,0,1,175.08,190.36Z" transform="translate(-61.39 1.67)"/><path class="cls-1" d="M209.81,230.26a8.67,8.67,0,1,1,17.34,0,8.67,8.67,0,0,1-17.34,0Z" transform="translate(-61.39 1.67)"/><path class="cls-1" d="M178.54,225.06a6.93,6.93,0,0,1-13.86,0,6.93,6.93,0,1,1,13.86,0Z" transform="translate(-61.39 1.67)"/><path class="cls-1" d="M202.84,199a5.2,5.2,0,1,1-5.28-5.17A5.18,5.18,0,0,1,202.84,199Z" transform="translate(-61.39 1.67)"/><path class="cls-1" d="M187.24,173a5.2,5.2,0,1,1,5.19-5.26A5.19,5.19,0,0,1,187.24,173Z" transform="translate(-61.39 1.67)"/><rect class="cls-3" x="20" y="20" width="353.8" height="475.33" rx="65.93" ry="65.93"/><path class="cls-1" d="M141.68,324.14a154,154,0,0,1,15.75-5.54c5.25-1.62,10.5-3,15.75-4.24q15.75-3.72,31.5-5.91a452.42,452.42,0,0,1,63-4.31,447.7,447.7,0,0,1,63,4.26q15.75,2.21,31.5,5.91c5.25,1.26,10.5,2.64,15.75,4.26a155.3,155.3,0,0,1,15.76,5.57A155.39,155.39,0,0,1,378,329.72c-5.25,1.62-10.5,3-15.75,4.26q-15.75,3.72-31.5,5.91a447.69,447.69,0,0,1-63,4.25,452.42,452.42,0,0,1-63-4.31q-15.75-2.22-31.5-5.9c-5.25-1.26-10.5-2.63-15.75-4.24A156.54,156.54,0,0,1,141.68,324.14Z" transform="translate(-61.39 1.67)"/><path class="cls-1" d="M145.36,400.46a45.53,45.53,0,0,1,5.44-5.54,57.57,57.57,0,0,1,38-14.46,56.26,56.26,0,0,1,21.73,4.25,58.41,58.41,0,0,1,16.3,10.18,44.45,44.45,0,0,1,5.43,5.57,45.27,45.27,0,0,1-5.43,5.58,58.8,58.8,0,0,1-16.3,10.17,56.26,56.26,0,0,1-21.73,4.25,56.83,56.83,0,0,1-21.73-4.31,58.4,58.4,0,0,1-10.87-5.9A59.22,59.22,0,0,1,150.8,406,45.53,45.53,0,0,1,145.36,400.46Z" transform="translate(-61.39 1.67)"/><path class="cls-1" d="M303.09,179.53a44.77,44.77,0,0,1,5.43-5.54,58.77,58.77,0,0,1,5.44-4.24,58.13,58.13,0,0,1,10.86-5.91,56.9,56.9,0,0,1,21.73-4.31,56.1,56.1,0,0,1,21.74,4.26,57,57,0,0,1,10.86,5.91,59.37,59.37,0,0,1,5.43,4.26,44.48,44.48,0,0,1,5.44,5.57,43.92,43.92,0,0,1-5.44,5.58,59.37,59.37,0,0,1-5.43,4.26,58.13,58.13,0,0,1-10.86,5.91,56.27,56.27,0,0,1-21.74,4.25,56.9,56.9,0,0,1-21.73-4.31,58.06,58.06,0,0,1-10.86-5.9,62.41,62.41,0,0,1-5.44-4.24A45.61,45.61,0,0,1,303.09,179.53Z" transform="translate(-61.39 1.67)"/><path class="cls-1" d="M273.84,400.46a54.68,54.68,0,0,1,7.26-5.54,78,78,0,0,1,7.26-4.24,88.59,88.59,0,0,1,14.52-5.91,98.73,98.73,0,0,1,29.05-4.31,97.6,97.6,0,0,1,29,4.25,87.78,87.78,0,0,1,14.52,5.92,77.12,77.12,0,0,1,7.27,4.26,54.16,54.16,0,0,1,7.26,5.57,55.12,55.12,0,0,1-7.26,5.58,77,77,0,0,1-7.27,4.25A87.78,87.78,0,0,1,361,416.21a97.6,97.6,0,0,1-29,4.25,98.73,98.73,0,0,1-29.05-4.31,89.42,89.42,0,0,1-14.52-5.9A80.43,80.43,0,0,1,281.1,406,54.68,54.68,0,0,1,273.84,400.46Z" transform="translate(-61.39 1.67)"/><path class="cls-1" d="M279.86,247.82a54.68,54.68,0,0,1,7.26-5.54,78,78,0,0,1,7.26-4.24,88.69,88.69,0,0,1,14.53-5.91,100.58,100.58,0,0,1,58.09,0A86.86,86.86,0,0,1,381.52,238a80.58,80.58,0,0,1,7.26,4.26,55,55,0,0,1,7.26,5.57,54.27,54.27,0,0,1-7.26,5.58,80.58,80.58,0,0,1-7.26,4.26A88.59,88.59,0,0,1,367,263.57a100.69,100.69,0,0,1-58.09-.06,88.62,88.62,0,0,1-14.53-5.9,82.72,82.72,0,0,1-7.26-4.24A55.66,55.66,0,0,1,279.86,247.82Z" transform="translate(-61.39 1.67)"/></svg>