<svg id="Layer_1" data-name="Layer 1" xmlns="http://www.w3.org/2000/svg" viewBox="0 0 999.9 1000"><defs><style>.cls-1{fill:#e5b25d;}.cls-2{fill:none;}</style></defs><title>orderstep3</title><path class="cls-1" d="M507,999.94c-79.9-.16-155.56-18.14-226.75-54.43A502.85,502.85,0,0,1,33.43,660.18,489.91,489.91,0,0,1,10,553.73a502.11,502.11,0,0,1-1.29-94.32A501,501,0,0,1,306.86,41.88,490,490,0,0,1,432.61,5.54c35.57-5.3,71.32-7.18,107.23-4.15,4.36.37,8.8.37,13,1.3,16,3.49,23.65,20.77,15.51,35.16-4.89,8.63-9.27,17.39-11.53,27.09-9.11,39.2,11,78.26,48.84,95,15.82,7,20.62,20.5,12.85,35.84-18.4,36.34-21.89,74.18-8.28,112.5C628.45,359.48,665,391,718.26,402c32.55,6.75,63.78,1.58,93.36-13.59,15-7.72,29-2.58,35.47,12.93,13.53,32.69,47.82,53.8,82.77,50.84a82.21,82.21,0,0,0,37-12.19c9.34-5.82,18.77-6.51,28.08-.19,6.93,4.69,9.68,11.74,10.33,19.87Q1017.16,609.34,945,741c-44.8,81.28-107.76,145.14-188,191.91a492.53,492.53,0,0,1-152.52,57.58A498.66,498.66,0,0,1,507,999.94ZM517.46,48.4c-143.94-6.73-328.85,69.21-418.26,256C11,488.67,56.48,706.91,208.68,840.21,362.3,974.76,585,988.54,752.62,880.12q98.88-64,154.28-168.2c36.81-69.38,53.92-143.43,52.42-222.6-4.13,1.59-7.22,2.91-10.4,4-6.49,2.15-12.9,5.27-19.55,6-20.43,2.25-39.66-2.78-57.79-12-21.78-11.11-38.57-27.76-52.09-47.88-1.5-2.23-2.69-2.52-5.11-1.54-14.72,6-29.86,10.68-45.63,12.74-44.53,5.83-85.9-3.52-124-27.08a184.22,184.22,0,0,1-65.9-69.24C554.62,309.82,547.8,263.06,562,213.93c2.37-8.23,5.38-16.27,8.14-24.57-1.59-1.09-3.24-2.2-4.87-3.35-27.24-19.34-47.33-43.85-55.16-77-3.95-16.72-4.88-33.31,3.17-49.36C515,56.1,516.05,52.23,517.46,48.4Z" transform="translate(-7.11 0.06)"/><path class="cls-1" d="M769.12,47.59a47.59,47.59,0,1,1,47.23,47.64A47.49,47.49,0,0,1,769.12,47.59Z" transform="translate(-7.11 0.06)"/><path class="cls-1" d="M816.54,226.31c.08,20.53-17.61,36.19-37,35.55-18.67-.62-34.49-16.74-34.37-36a35.68,35.68,0,0,1,71.36.46Z" transform="translate(-7.11 0.06)"/><path class="cls-1" d="M1007,285.87a23.81,23.81,0,0,1-24,23.67c-13.31-.19-23.51-10.91-23.41-24.58.1-12.56,11-23.16,23.75-23.11A23.87,23.87,0,0,1,1007,285.87Z" transform="translate(-7.11 0.06)"/><path class="cls-2" d="M517.46,48.4c-1.41,3.83-2.44,7.7-4.2,11.21-8.05,16-7.12,32.64-3.17,49.36,7.83,33.19,27.92,57.7,55.16,77,1.63,1.15,3.28,2.26,4.87,3.35-2.76,8.3-5.77,16.34-8.14,24.57-14.18,49.13-7.36,95.89,16.88,140.34a184.22,184.22,0,0,0,65.9,69.24c38.09,23.56,79.46,32.91,124,27.08,15.77-2.06,30.91-6.78,45.63-12.74,2.42-1,3.61-.69,5.11,1.54,13.52,20.12,30.31,36.77,52.09,47.88,18.13,9.25,37.36,14.28,57.79,12,6.65-.74,13.06-3.86,19.55-6,3.18-1.06,6.27-2.38,10.4-4,1.5,79.17-15.61,153.22-52.42,222.6s-88.36,125.55-154.28,168.2C585,988.54,362.3,974.76,208.68,840.21,56.48,706.91,11,488.67,99.2,304.39,188.61,117.61,373.52,41.67,517.46,48.4Zm-177.08,404a71.38,71.38,0,1,0-71.13,71.36A71.28,71.28,0,0,0,340.38,452.39ZM578.62,726.15a59.57,59.57,0,0,0,59.51,59.6c32.57-.06,59.39-26.83,59.46-59.36.08-32.75-26.53-59.63-59.05-59.64C605.16,666.74,578.63,693,578.62,726.15Zm-214.5-35.64A47.58,47.58,0,1,0,316.85,738,47.57,47.57,0,0,0,364.12,690.51ZM530.83,511.75c-.13-20-16-35.6-36.25-35.5-19.29.1-35.32,16.5-35.12,36,.21,19.87,16.27,35.4,36.52,35.3C515.14,547.4,531,531.18,530.83,511.75Zm-107-178.51c20,0,35.6-15.93,35.56-36.15,0-19.2-16.09-35.17-35.45-35.24a35.7,35.7,0,1,0-.11,71.39Z" transform="translate(-7.11 0.06)"/><path class="cls-1" d="M340.38,452.39A71.38,71.38,0,1,1,269,381,71.33,71.33,0,0,1,340.38,452.39Z" transform="translate(-7.11 0.06)"/><path class="cls-1" d="M578.62,726.15c0-33.11,26.54-59.41,59.92-59.4,32.52,0,59.13,26.89,59.05,59.64-.07,32.53-26.89,59.3-59.46,59.36A59.57,59.57,0,0,1,578.62,726.15Z" transform="translate(-7.11 0.06)"/><path class="cls-1" d="M364.12,690.51a47.58,47.58,0,0,1-95.16.08,47.58,47.58,0,1,1,95.16-.08Z" transform="translate(-7.11 0.06)"/><path class="cls-1" d="M530.83,511.75C531,531.18,515.14,547.4,496,547.5c-20.25.1-36.31-15.43-36.52-35.3-.2-19.45,15.83-35.85,35.12-36C514.79,476.15,530.7,491.73,530.83,511.75Z" transform="translate(-7.11 0.06)"/><path class="cls-1" d="M423.81,333.24a35.7,35.7,0,1,1,.11-71.39c19.36.07,35.41,16,35.45,35.24C459.41,317.31,443.77,333.2,423.81,333.24Z" transform="translate(-7.11 0.06)"/></svg>