<svg id="Layer_1" data-name="Layer 1" xmlns="http://www.w3.org/2000/svg" viewBox="0 0 335.97 208.88"><defs><style>.cls-1{fill:#e5b25d;}.cls-2{fill:none;}</style></defs><title>orderstep1</title><path class="cls-1" d="M.51,181.81c2.06-3.16,5-4.11,8.68-3.94,4.67.21,9.35,0,14.36,0v-4.17q0-79.57,0-159.14c0-7.69,3.55-12.81,10-14.26A20.35,20.35,0,0,1,38.08,0h260.2c9.49,0,14.48,5,14.49,14.66q0,79.23,0,158.48v4.78c5.11,0,10.09,0,15.08,0a18.56,18.56,0,0,1,4.22.35c3.14.77,4.61,3.15,4.39,6.73-.78,12.54-10.14,22.89-22.77,23.41-15.82.66-31.68.16-48,.16,0-3.17,0-6.3,0-9.43-.06-5-2.93-8.23-7.07-8.11s-6.7,3.24-6.77,8.1c0,3.05,0,6.09,0,9.36H240.17c0-3.83.16-7.71,0-11.56a5.4,5.4,0,0,0-4.84-5.41c-2.15-.21-5,.33-6.5,1.68s-2,4-2.25,6.17a79.7,79.7,0,0,0-.09,9.35h-4.26c-63.87,0-127.75-.19-191.62.15-14,.07-26.24-5.15-30-21.82ZM46,22.29V169H290.36V22.29Z" transform="translate(-0.51 0)"/><path class="cls-2" d="M46,22.29H290.36V169H46ZM170,121.1c8.2,0,16.4,0,24.6,0,2.59,0,4.74-.54,5.78-3.28q8.43-22,16.9-44c.84-2.19.63-4.3-1.45-5.46a10.14,10.14,0,0,0-4.71-.88q-34.44-.07-68.88,0c-6.22,0-6.74.14-8.34-5.8-2.09-7.82-7.87-11.45-14.38-14.51a7,7,0,0,0-9.15,2.77,7.25,7.25,0,0,0,1.83,9.41c1.18,1,2.7,1.54,3.77,2.59,1.49,1.45,3.22,3,4,4.83,6.5,16.44,12.8,33,19.17,49.45,1.73,4.46,2.39,4.91,7.29,4.92Q158.19,121.12,170,121.1Zm-24.45,15.34a8.59,8.59,0,1,0,17.17-.13,8.59,8.59,0,0,0-17.17.13ZM186,127.88a8.83,8.83,0,0,0-8.61,8.53,8.66,8.66,0,1,0,8.61-8.53Z" transform="translate(-0.51 0)"/><path class="cls-1" d="M170,121.1q-11.81,0-23.61,0c-4.9,0-5.56-.46-7.29-4.92-6.37-16.5-12.67-33-19.17-49.45-.74-1.85-2.47-3.38-4-4.83-1.07-1-2.59-1.63-3.77-2.59a7.25,7.25,0,0,1-1.83-9.41,7,7,0,0,1,9.15-2.77c6.51,3.06,12.29,6.69,14.38,14.51,1.6,5.94,2.12,5.8,8.34,5.8q34.44,0,68.88,0a10.14,10.14,0,0,1,4.71.88c2.08,1.16,2.29,3.27,1.45,5.46q-8.46,22-16.9,44c-1,2.74-3.19,3.29-5.78,3.28C186.39,121.08,178.19,121.1,170,121.1Z" transform="translate(-0.51 0)"/><path class="cls-1" d="M145.54,136.44a8.59,8.59,0,1,1,8.5,8.62A8.77,8.77,0,0,1,145.54,136.44Z" transform="translate(-0.51 0)"/><path class="cls-1" d="M186,127.88a8.88,8.88,0,0,1,8.7,8.45,8.66,8.66,0,1,1-17.31.08A8.83,8.83,0,0,1,186,127.88Z" transform="translate(-0.51 0)"/></svg>