<svg id="Layer_1" data-name="Layer 1" xmlns="http://www.w3.org/2000/svg" viewBox="0 0 409.54 257.28"><defs><style>.cls-1{fill:#e5b25d;}.cls-2{fill:none;}</style></defs><title>orderstep2</title><path class="cls-1" d="M410,306c-2.2,4.69-6.05,6.27-11,6.08a118.42,118.42,0,0,0-13.19.09,5.14,5.14,0,0,0-3.64,2.55c-5.44,12.7-15.06,19.46-28.74,19.93-12.69.44-23.57-7.47-29.07-20a5,5,0,0,0-3.7-2.45q-51.58-.21-103.18,0a5,5,0,0,0-3.64,2.52c-5.43,12.5-16.41,20.43-29.13,20-13.67-.49-23.29-7.25-28.69-20a5.17,5.17,0,0,0-3.67-2.5c-4-.33-8-.08-12-.13-7.52-.11-10.34-3-10.38-10.47,0-1.84,0-3.67,0-6H85.76a28.65,28.65,0,0,1-3.59-.1c-4.66-.61-7.62-3.95-7.49-8.33a7.58,7.58,0,0,1,7.65-7.67c9.06-.28,18.13-.16,27.19-.19,6.64,0,13.28,0,20.21,0,.08-1.66.21-2.95.21-4.23,0-20.66-.05-41.33.07-62,0-3-.52-4.3-3.89-4.89-31.74-5.56-54.68-34.21-53.79-66.84a65.92,65.92,0,0,1,57.36-63.41c36.55-4.56,69.32,20.68,74,57,.12.91.39,1.8.68,3.09h99.11c8.58,0,11.28,2.69,11.29,11.22v30.4h6.15c10.4,0,20.79,0,31.19,0a11.72,11.72,0,0,1,9.51,4.15q22.62,25.9,45.29,51.76c1.12,1.28,2.05,2.73,3.07,4.1ZM146.32,295.3c7.81.86,7.7.8,11.15-5.45,6.3-11.42,16-17.33,29.12-16.63,12.56.67,21.55,7.2,26.52,18.71,1.31,3,2.77,3.77,5.83,3.76,24.92-.12,49.85-.07,74.77-.07h4.49V154.53c-1-.11-1.78-.27-2.54-.27-29.73,0-59.45,0-89.17-.07-2.64,0-3.29,1.12-3.78,3.42-5.56,25.88-27.17,46.54-53.08,50.69-2.67.42-3.52,1.34-3.51,4,.09,26.79,0,53.58.06,80.37C146.18,293.48,146.26,294.26,146.32,295.3Zm41.73-152.5c-.73-27.89-23.48-50.05-50.5-49.19C109.63,94.5,87.84,117,88.5,144.25c.67,27.55,23.54,49.5,50.9,48.84C166.51,192.43,188.75,169.45,188.05,142.8ZM393.71,295.37v-4.23c0-14.12.1-28.24-.1-42.35a10.78,10.78,0,0,0-2.39-6.34q-19.14-22.26-38.7-44.17a7.69,7.69,0,0,0-5-2.26c-9.72-.21-19.44-.11-29.17-.08-1.13,0-2.26.19-3.24.28v99.27h8.19a5.86,5.86,0,0,0,.51-.79c.27-.61.48-1.24.74-1.85,4.87-11.55,13.47-18.48,26-19.57,13.18-1.14,23.81,4.23,29.57,16.1,2.81,5.8,6.17,6.9,11.48,6.23Zm-26,8.74A14.46,14.46,0,1,0,353,318.3,14.4,14.4,0,0,0,367.7,304.11ZM184.8,318.33a14.66,14.66,0,0,0,14.63-14.42,14.54,14.54,0,1,0-29.07-.14A14.56,14.56,0,0,0,184.8,318.33Z" transform="translate(-0.45 -77.36)"/><path class="cls-1" d="M52,217.3c14.13,0,28.26-.07,42.38,0,6.93,0,11.15,4.57,9.15,10.19-.8,2.25-3.33,4.14-5.49,5.57-1.27.85-3.35.62-5.06.62q-40.78,0-81.57,0h-.8C4.21,233.59.37,230.44.45,225.41s3.93-8.08,10.35-8.1C24.52,217.27,38.25,217.3,52,217.3Z" transform="translate(-0.45 -77.36)"/><path class="cls-1" d="M35.23,157.16c5.05,0,10.1-.08,15.15,0,5.42.1,9.06,3.35,9.16,8s-3.45,8.13-8.87,8.19q-15.54.19-31.09,0c-5.24-.07-8.66-3.35-8.76-7.9s3.55-8,8.86-8.29H35.23Z" transform="translate(-0.45 -77.36)"/><path class="cls-1" d="M53.33,295.56c-6.83-.06-10.61-3.75-9.76-9.54.71-4.74,4.66-7.1,11.32-6.75,5.41.28,8.68,3.12,8.88,7.72C64,292.46,60.19,295.61,53.33,295.56Z" transform="translate(-0.45 -77.36)"/><path class="cls-2" d="M146.32,295.3c-.06-1-.14-1.82-.14-2.6,0-26.79,0-53.58-.06-80.37,0-2.69.84-3.61,3.51-4,25.91-4.15,47.52-24.81,53.08-50.69.49-2.3,1.14-3.43,3.78-3.42,29.72.09,59.44.05,89.17.07.76,0,1.53.16,2.54.27V295.62h-4.49c-24.92,0-49.85-.05-74.77.07-3.06,0-4.52-.74-5.83-3.76-5-11.51-14-18-26.52-18.71-13.09-.7-22.82,5.21-29.12,16.63C154,296.1,154.13,296.16,146.32,295.3Z" transform="translate(-0.45 -77.36)"/><path class="cls-2" d="M188.05,142.8c.7,26.65-21.54,49.63-48.65,50.29-27.36.66-50.23-21.29-50.9-48.84C87.84,117,109.63,94.5,137.55,93.61,164.57,92.75,187.32,114.91,188.05,142.8Zm-58-18.54c0,5.73-.37,11.49.16,17.18a16.51,16.51,0,0,0,3.41,8.52c3.62,4.41,7.93,8.26,12.05,12.25,4,3.84,8.73,4.17,12.12,1,3.57-3.34,3.41-8.21-.54-12.42-2.74-2.91-5.82-5.52-8.38-8.57a9.68,9.68,0,0,1-2.29-5.51c-.23-9.59-.05-19.19-.15-28.79a18.21,18.21,0,0,0-1-6.24,7.63,7.63,0,0,0-8.54-4.45c-4,.66-6.67,3.86-6.8,8.63C130,112,130.07,118.12,130.06,124.26Z" transform="translate(-0.45 -77.36)"/><path class="cls-2" d="M393.71,295.37l-2.17.24c-5.31.67-8.67-.43-11.48-6.23-5.76-11.87-16.39-17.24-29.57-16.1-12.5,1.09-21.1,8-26,19.57-.26.61-.47,1.24-.74,1.85a5.86,5.86,0,0,1-.51.79h-8.19V196.22c1-.09,2.11-.28,3.24-.28,9.73,0,19.45-.13,29.17.08a7.69,7.69,0,0,1,5,2.26q19.53,21.93,38.7,44.17a10.78,10.78,0,0,1,2.39,6.34c.2,14.11.1,28.23.1,42.35Z" transform="translate(-0.45 -77.36)"/><path class="cls-2" d="M367.7,304.11a14.46,14.46,0,1,1-28.92-.55,14.46,14.46,0,1,1,28.92.55Z" transform="translate(-0.45 -77.36)"/><path class="cls-2" d="M184.8,318.33a14.56,14.56,0,0,1-14.44-14.56,14.54,14.54,0,1,1,14.44,14.56Z" transform="translate(-0.45 -77.36)"/><path class="cls-1" d="M130.07,124.26c0-6.14-.12-12.27,0-18.4.13-4.77,2.83-8,6.8-8.63a7.63,7.63,0,0,1,8.54,4.45,18.21,18.21,0,0,1,1,6.24c.1,9.6-.08,19.2.15,28.79a9.68,9.68,0,0,0,2.29,5.51c2.56,3.05,5.64,5.66,8.38,8.57,4,4.21,4.11,9.08.54,12.42-3.39,3.17-8.14,2.84-12.12-1-4.12-4-8.43-7.84-12.05-12.25a16.51,16.51,0,0,1-3.41-8.52C129.69,135.75,130.06,130,130.07,124.26Z" transform="translate(-0.45 -77.36)"/></svg>