<svg id="Layer_1" data-name="Layer 1" xmlns="http://www.w3.org/2000/svg" viewBox="0 0 510.23 464.49"><defs><style>.cls-1{fill:#e5b25d;}</style></defs><title>shopping-cart</title><path class="cls-1" d="M286.35,375.49H175.16c-23.08,0-26.15-2.15-34.27-23.18-30-77.6-59.68-155.48-90.3-232.87C47.13,110.72,39,103.53,32,96.69c-5-4.93-12.21-7.65-17.74-12.17A34.16,34.16,0,0,1,5.59,40.2a32.88,32.88,0,0,1,43.07-13C79.3,41.59,106.51,58.67,116.4,95.47c7.49,28,9.94,27.24,39.25,27.24q162.13,0,324.29.16c7.47,0,15.91.63,22.15,4.12,9.78,5.44,10.89,15.39,6.84,25.71q-39.82,103.52-79.54,207.24c-4.94,12.88-15,15.5-27.24,15.47C363.55,375.33,325,375.49,286.35,375.49Z" transform="translate(-0.91 -23.76)"/><path class="cls-1" d="M171.23,447.62a40.43,40.43,0,1,1,40.23,40.62h-.21A41.33,41.33,0,0,1,171.23,447.62Z" transform="translate(-0.91 -23.76)"/><path class="cls-1" d="M361.48,407.34c21.49,0,40.61,18.52,40.86,39.79S382.78,488.54,361,488.24c-21.25-.27-40.23-19.56-40.13-40.86A41.62,41.62,0,0,1,361.48,407.34Z" transform="translate(-0.91 -23.76)"/></svg>